<?xml version="1.0" encoding="UTF-8" standalone="no"?>
<!-- Created with Inkscape (http://www.inkscape.org/) -->

<svg
   width="192.77118mm"
   height="192.77118mm"
   viewBox="0 0 192.77118 192.77118"
   version="1.1"
   id="svg5"
   inkscape:version="1.1.2 (0a00cf5339, 2022-02-04)"
   xmlns:inkscape="http://www.inkscape.org/namespaces/inkscape"
   xmlns:sodipodi="http://sodipodi.sourceforge.net/DTD/sodipodi-0.dtd"
   xmlns="http://www.w3.org/2000/svg"
   xmlns:svg="http://www.w3.org/2000/svg">
  <sodipodi:namedview
     id="namedview7"
     pagecolor="#ffffff"
     bordercolor="#666666"
     borderopacity="1.0"
     inkscape:pageshadow="2"
     inkscape:pageopacity="0.0"
     inkscape:pagecheckerboard="0"
     inkscape:document-units="mm"
     showgrid="false"
     inkscape:snap-global="true"
     inkscape:zoom="0.40189418"
     inkscape:cx="-88.33171"
     inkscape:cy="114.45799"
     inkscape:window-width="1500"
     inkscape:window-height="939"
     inkscape:window-x="0"
     inkscape:window-y="0"
     inkscape:window-maximized="1"
     inkscape:current-layer="layer1"
     fit-margin-top="0"
     fit-margin-left="0"
     fit-margin-right="0"
     fit-margin-bottom="0" />
  <defs
     id="defs2" />
  <g
     inkscape:label="Layer 1"
     inkscape:groupmode="layer"
     id="layer1"
     transform="translate(69.68325,-86.061377)">
    <g
       id="g16496"
       transform="translate(-148.44838,-238.04984)">
      <path
         style="fill:#ff1313;fill-opacity:1;stroke:none;stroke-width:0.264583px;stroke-linecap:butt;stroke-linejoin:miter;stroke-opacity:1"
         d="m -140.93434,110.97074 h 42.838044 64.257062 l 21.419022,21.41903 v 42.83804 l -64.257064,64.25707 h -21.41902 l -64.257064,-64.25707 v -42.83804 z"
         id="path16434" />
      <g
         id="g16476">
        <rect
           style="fill:#000000;stroke-width:0.264583"
           id="rect16436"
           width="21.419022"
           height="21.419022"
           x="-140.93434"
           y="89.55172" />
        <rect
           style="fill:#000000;stroke-width:0.264583"
           id="rect16438"
           width="21.419022"
           height="21.419022"
           x="-119.51532"
           y="89.55172" />
        <rect
           style="fill:#000000;stroke-width:0.264583"
           id="rect16440"
           width="21.419022"
           height="21.419022"
           x="-98.096298"
           y="110.97074" />
        <rect
           style="fill:#000000;stroke-width:0.264583"
           id="rect16442"
           width="21.419022"
           height="21.419022"
           x="-76.677277"
           y="89.55172" />
        <rect
           style="fill:#000000;stroke-width:0.264583"
           id="rect16444"
           width="21.419022"
           height="21.419022"
           x="-55.258255"
           y="89.55172" />
        <rect
           style="fill:#000000;stroke-width:0.264583"
           id="rect16446"
           width="21.419022"
           height="21.419022"
           x="-162.35336"
           y="110.97074" />
        <rect
           style="fill:#000000;stroke-width:0.264583"
           id="rect16448"
           width="21.419022"
           height="21.419022"
           x="-183.77238"
           y="132.38977" />
        <rect
           style="fill:#000000;stroke-width:0.264583"
           id="rect16450"
           width="21.419022"
           height="21.419022"
           x="-183.77238"
           y="153.80879" />
        <rect
           style="fill:#000000;stroke-width:0.264583"
           id="rect16452"
           width="21.419022"
           height="21.419022"
           x="-183.77238"
           y="175.22781" />
        <rect
           style="fill:#000000;stroke-width:0.264583"
           id="rect16454"
           width="21.419022"
           height="21.419022"
           x="-162.35336"
           y="196.64684" />
        <rect
           style="fill:#000000;stroke-width:0.264583"
           id="rect16456"
           width="21.419022"
           height="21.419022"
           x="-140.93434"
           y="218.06586" />
        <rect
           style="fill:#000000;stroke-width:0.264583"
           id="rect16458"
           width="21.419022"
           height="21.419022"
           x="-119.51532"
           y="239.48488" />
        <rect
           style="fill:#000000;stroke-width:0.264583"
           id="rect16460"
           width="21.419022"
           height="21.419022"
           x="-98.096298"
           y="260.9039" />
        <rect
           style="fill:#000000;stroke-width:0.264583"
           id="rect16462"
           width="21.419022"
           height="21.419022"
           x="-76.677277"
           y="239.48488" />
        <rect
           style="fill:#000000;stroke-width:0.264583"
           id="rect16464"
           width="21.419022"
           height="21.419022"
           x="-55.258255"
           y="218.06586" />
        <rect
           style="fill:#000000;stroke-width:0.264583"
           id="rect16466"
           width="21.419022"
           height="21.419022"
           x="-33.839233"
           y="196.64684" />
        <rect
           style="fill:#000000;stroke-width:0.264583"
           id="rect16468"
           width="21.419022"
           height="21.419022"
           x="-12.420212"
           y="175.22781" />
        <rect
           style="fill:#000000;stroke-width:0.264583"
           id="rect16470"
           width="21.419022"
           height="21.419022"
           x="-12.420212"
           y="153.80879" />
        <rect
           style="fill:#000000;stroke-width:0.264583"
           id="rect16472"
           width="21.419022"
           height="21.419022"
           x="-12.420212"
           y="132.38977" />
        <rect
           style="fill:#000000;stroke-width:0.264583"
           id="rect16474"
           width="21.419022"
           height="21.419022"
           x="-33.839233"
           y="110.97074" />
      </g>
      <g
         id="g16492">
        <rect
           style="fill:#bc1315;fill-opacity:1;stroke-width:0.264583"
           id="rect16478"
           width="21.419022"
           height="21.419022"
           x="-162.35336"
           y="175.22781" />
        <rect
           style="fill:#bc1315;fill-opacity:1;stroke-width:0.264583"
           id="rect16480"
           width="21.419022"
           height="21.419022"
           x="-140.93434"
           y="196.64684" />
        <rect
           style="fill:#bc1315;fill-opacity:1;stroke-width:0.264583"
           id="rect16482"
           width="21.419022"
           height="21.419022"
           x="-119.51532"
           y="218.06586" />
        <rect
           style="fill:#bc1315;fill-opacity:1;stroke-width:0.264583"
           id="rect16484"
           width="21.419022"
           height="21.419022"
           x="-98.096298"
           y="239.48488" />
        <rect
           style="fill:#bc1315;fill-opacity:1;stroke-width:0.264583"
           id="rect16486"
           width="21.419022"
           height="21.419022"
           x="-76.677277"
           y="218.06586" />
        <rect
           style="fill:#bc1315;fill-opacity:1;stroke-width:0.264583"
           id="rect16488"
           width="21.419022"
           height="21.419022"
           x="-55.258255"
           y="196.64684" />
        <rect
           style="fill:#bc1315;fill-opacity:1;stroke-width:0.264583"
           id="rect16490"
           width="21.419022"
           height="21.419022"
           x="-33.839233"
           y="175.22781" />
      </g>
      <rect
         style="fill:#ffffff;fill-opacity:1;stroke-width:0.264583"
         id="rect16494"
         width="21.419022"
         height="21.419022"
         x="-140.93434"
         y="132.38977" />
    </g>
    <g
       id="g16562"
       transform="translate(115.85426,-44.203021)">
      <path
         style="fill:#ff1313;fill-opacity:1;stroke:none;stroke-width:0.264583px;stroke-linecap:butt;stroke-linejoin:miter;stroke-opacity:1"
         d="m -142.69925,151.68319 h 42.838043 64.257062 l 21.419022,21.41903 v 42.83804 l -64.257064,64.25707 h -21.41902 l -64.257063,-64.25707 v -42.83804 z"
         id="path12874" />
      <path
         id="rect403"
         style="fill:#000000;stroke-width:0.999999"
         d="m -539.33594,492.33789 v 80.95313 h 80.95313 80.95508 v -80.95313 h -80.95508 z m 161.90821,80.95313 v 80.95312 h 80.95312 v -80.95312 z m 80.95312,0 h 80.95313 80.95507 v -80.95313 h -80.95507 -80.95313 z m 161.9082,0 v 80.95312 h 80.953129 v -80.95312 z m 80.953129,80.95312 v 80.95508 80.95312 80.95313 h 80.953125 v -80.95313 -80.95312 -80.95508 z m 0,242.86133 h -80.953129 v 80.95508 h 80.953129 z m -80.953129,80.95508 h -80.95507 v 80.95315 h 80.95507 z m -80.95507,80.95315 h -80.95313 v 80.9531 h 80.95313 z m -80.95313,80.9531 h -80.95312 v 80.9551 h 80.95312 z m -80.95312,0 v -80.9531 h -80.95508 v 80.9531 z m -80.95508,-80.9531 v -80.95315 h -80.95313 v 80.95315 z m -80.95313,-80.95315 v -80.95508 h -80.95312 v 80.95508 z m -80.95312,-80.95508 v -80.95313 -80.95312 -80.95508 h -80.95508 v 80.95508 80.95312 80.95313 z m 0,-242.86133 h 80.95312 v -80.95312 h -80.95312 z"
         transform="scale(0.26458333)" />
      <path
         id="rect7429"
         style="fill:#bc1315;fill-opacity:1;stroke-width:0.999999"
         d="m -620.28906,816.15234 v 80.95313 h 80.95312 v -80.95313 z m 80.95312,80.95313 v 80.95508 h 80.95313 v -80.95508 z m 80.95313,80.95508 v 80.95315 h 80.95508 v -80.95315 z m 80.95508,80.95315 v 80.9531 h 80.95312 v -80.9531 z m 80.95312,0 h 80.95313 v -80.95315 h -80.95313 z m 80.95313,-80.95315 h 80.95507 v -80.95508 h -80.95507 z m 80.95507,-80.95508 h 80.953129 v -80.95313 h -80.953129 z"
         transform="scale(0.26458333)" />
      <rect
         style="fill:#ffffff;fill-opacity:1;stroke-width:0.264583"
         id="rect7441"
         width="21.419022"
         height="21.419022"
         x="-142.69925"
         y="173.10222" />
    </g>
  </g>
</svg>
